<?xml version="1.0" standalone="no"?>
<!DOCTYPE svg PUBLIC "-//W3C//DTD SVG 20010904//EN"
 "http://www.w3.org/TR/2001/REC-SVG-20010904/DTD/svg10.dtd">
<svg version="1.0" xmlns="http://www.w3.org/2000/svg"
 width="50.000000pt" height="50.000000pt" viewBox="0 0 50.000000 50.000000"
 preserveAspectRatio="xMidYMid meet">

<g transform="translate(0.000000,50.000000) scale(0.100000,-0.100000)"
fill="#000000" stroke="none">
<path d="M95 431 c-45 -20 -70 -60 -70 -113 0 -46 3 -53 38 -83 52 -45 47 -89
-14 -120 -38 -20 -29 -35 16 -25 58 13 108 44 142 88 75 99 42 244 -58 257
-19 3 -43 1 -54 -4z"/>
<path d="M345 431 c-45 -20 -70 -60 -70 -113 0 -46 3 -53 38 -83 52 -45 47
-89 -14 -120 -38 -20 -30 -35 14 -26 112 26 187 110 187 211 0 72 -42 128
-101 135 -19 3 -43 1 -54 -4z"/>
</g>
</svg>
