<?xml version="1.0" standalone="no"?>
<!DOCTYPE svg PUBLIC "-//W3C//DTD SVG 20010904//EN"
 "http://www.w3.org/TR/2001/REC-SVG-20010904/DTD/svg10.dtd">
<svg version="1.0" xmlns="http://www.w3.org/2000/svg"
 width="50.000000pt" height="50.000000pt" viewBox="0 0 50.000000 50.000000"
 preserveAspectRatio="xMidYMid meet">

<g transform="translate(0.000000,50.000000) scale(0.100000,-0.100000)"
fill="#000000" stroke="none">
<path d="M70 428 c-40 -21 -70 -75 -70 -125 0 -104 73 -188 187 -214 44 -9 52
6 14 26 -61 31 -66 75 -13 120 34 30 37 37 37 84 0 43 -4 55 -30 81 -36 35
-88 47 -125 28z"/>
<path d="M324 431 c-29 -13 -61 -56 -69 -92 -24 -109 57 -221 180 -249 45 -10
54 5 16 25 -61 31 -66 75 -13 120 34 30 37 37 37 84 0 43 -4 55 -30 81 -33 33
-85 46 -121 31z"/>
</g>
</svg>
